HIERARCHY
ROOT reference
{
  OFFSET -65.3212 -1.93545 -120.338
  CHANNELS 6 Xposition Yposition Zposition Zrotation Xrotation Yrotation
  JOINT Hips
  {
    OFFSET 0 78.7191 0
    CHANNELS 3 Zrotation Xrotation Yrotation
    JOINT Chest
    {
      OFFSET 0 8.7983 -4.7612
      CHANNELS 3 Zrotation Xrotation Yrotation
      JOINT Chest2
      {
        OFFSET 0 8.0291 0.4195
        CHANNELS 3 Zrotation Xrotation Yrotation
        JOINT Chest3
        {
          OFFSET 0 9.9351 -2.2114
          CHANNELS 3 Zrotation Xrotation Yrotation
          JOINT Neck
          {
            OFFSET 0 22.3885 -0.4656
            CHANNELS 3 Zrotation Xrotation Yrotation
            JOINT Head
            {
              OFFSET -0.0001 12.643 3.4389
              CHANNELS 3 Zrotation Xrotation Yrotation
              End Site
              {
                OFFSET 0.0001 17.6655 0.5274
              }
            }
          }
          JOINT LeftCollar
          {
            OFFSET 2.2603 21.606 7.4023
            CHANNELS 3 Zrotation Xrotation Yrotation
            JOINT LeftShoulder
            {
              OFFSET 13.5163 -1.1332 -5.0146
              CHANNELS 3 Zrotation Xrotation Yrotation
              JOINT LeftElbow
              {
                OFFSET -0.0995 -28.05 -0.2431
                CHANNELS 3 Zrotation Xrotation Yrotation
                JOINT LeftWrist
                {
                  OFFSET 0.0679 -23.3996 -0.1402
                  CHANNELS 3 Zrotation Xrotation Yrotation
                  JOINT LeftFinger1
                  {
                    OFFSET 0.7932 -9.069 2.5189
                    CHANNELS 3 Zrotation Xrotation Yrotation
                    JOINT LeftFinger11
                    {
                      OFFSET -0.8272 -3.3923 0.5977
                      CHANNELS 3 Zrotation Xrotation Yrotation
                      JOINT LeftFinger12
                      {
                        OFFSET -0.5649 -2.3158 0.4082
                        CHANNELS 3 Zrotation Xrotation Yrotation
                        End Site
                        {
                          OFFSET -0.4919 -1.6479 0.2673
                        }
                      }
                    }
                  }
                  JOINT LeftFinger2
                  {
                    OFFSET 0.9159 -9.2044 0.2193
                    CHANNELS 3 Zrotation Xrotation Yrotation
                    JOINT LeftFinger21
                    {
                      OFFSET 0.0117 -4.1944 -0.0248
                      CHANNELS 3 Zrotation Xrotation Yrotation
                      JOINT LeftFinger22
                      {
                        OFFSET 0.0071 -2.3249 -0.0142
                        CHANNELS 3 Zrotation Xrotation Yrotation
                        End Site
                        {
                          OFFSET -0.1475 -2.0882 0.0028
                        }
                      }
                    }
                  }
                  JOINT LeftFinger3
                  {
                    OFFSET 0.6113 -8.7231 -2.0637
                    CHANNELS 3 Zrotation Xrotation Yrotation
                    JOINT LeftFinger31
                    {
                      OFFSET -0.1927 -3.8059 -0.2383
                      CHANNELS 3 Zrotation Xrotation Yrotation
                      JOINT LeftFinger32
                      {
                        OFFSET -0.1091 -2.1688 -0.1362
                        CHANNELS 3 Zrotation Xrotation Yrotation
                        End Site
                        {
                          OFFSET -0.2358 -1.9176 -0.0906
                        }
                      }
                    }
                  }
                  JOINT LeftFinger4
                  {
                    OFFSET -0.6151 -8.0947 -3.5641
                    CHANNELS 3 Zrotation Xrotation Yrotation
                    JOINT LeftFinger41
                    {
                      OFFSET -0.4882 -2.341 -0.6462
                      CHANNELS 3 Zrotation Xrotation Yrotation
                      JOINT LeftFinger42
                      {
                        OFFSET -0.3575 -1.7167 -0.4742
                        CHANNELS 3 Zrotation Xrotation Yrotation
                        End Site
                        {
                          OFFSET -0.4187 -1.5237 -0.3496
                        }
                      }
                    }
                  }
                  JOINT LeftFinger0
                  {
                    OFFSET -1.42 -1.8761 1.4223
                    CHANNELS 3 Zrotation Xrotation Yrotation
                    JOINT LeftFinger01
                    {
                      OFFSET -1.1471 -3.4929 2.6334
                      CHANNELS 3 Zrotation Xrotation Yrotation
                      JOINT LeftFinger02
                      {
                        OFFSET -0.823 -2.3 1.6571
                        CHANNELS 3 Zrotation Xrotation Yrotation
                        End Site
                        {
                          OFFSET -0.5822 -1.6914 1.1582
                        }
                      }
                    }
                  }
                }
              }
            }
          }
          JOINT RightCollar
          {
            OFFSET -2.2603 21.606 7.4023
            CHANNELS 3 Zrotation Xrotation Yrotation
            JOINT RightShoulder
            {
              OFFSET -13.5187 -1.1334 -5.0155
              CHANNELS 3 Zrotation Xrotation Yrotation
              JOINT RightElbow
              {
                OFFSET 0.0994 -28.0499 -0.2431
                CHANNELS 3 Zrotation Xrotation Yrotation
                JOINT RightWrist
                {
                  OFFSET -0.0679 -23.3996 -0.1402
                  CHANNELS 3 Zrotation Xrotation Yrotation
                  JOINT RightFinger1
                  {
                    OFFSET -0.7932 -9.0691 2.5189
                    CHANNELS 3 Zrotation Xrotation Yrotation
                    JOINT RightFinger11
                    {
                      OFFSET 0.8272 -3.3923 0.5977
                      CHANNELS 3 Zrotation Xrotation Yrotation
                      JOINT RightFinger12
                      {
                        OFFSET 0.565 -2.3158 0.4082
                        CHANNELS 3 Zrotation Xrotation Yrotation
                        End Site
                        {
                          OFFSET 0.4919 -1.6479 0.2673
                        }
                      }
                    }
                  }
                  JOINT RightFinger2
                  {
                    OFFSET -0.916 -9.2044 0.2193
                    CHANNELS 3 Zrotation Xrotation Yrotation
                    JOINT RightFinger21
                    {
                      OFFSET -0.0117 -4.1944 -0.0248
                      CHANNELS 3 Zrotation Xrotation Yrotation
                      JOINT RightFinger22
                      {
                        OFFSET -0.0071 -2.3249 -0.0142
                        CHANNELS 3 Zrotation Xrotation Yrotation
                        End Site
                        {
                          OFFSET 0.1475 -2.0882 0.0028
                        }
                      }
                    }
                  }
                  JOINT RightFinger3
                  {
                    OFFSET -0.6113 -8.7231 -2.0637
                    CHANNELS 3 Zrotation Xrotation Yrotation
                    JOINT RightFinger31
                    {
                      OFFSET 0.1927 -3.8059 -0.2383
                      CHANNELS 3 Zrotation Xrotation Yrotation
                      JOINT RightFinger32
                      {
                        OFFSET 0.1091 -2.1688 -0.1362
                        CHANNELS 3 Zrotation Xrotation Yrotation
                        End Site
                        {
                          OFFSET 0.2358 -1.9176 -0.0906
                        }
                      }
                    }
                  }
                  JOINT RightFinger4
                  {
                    OFFSET 0.6151 -8.0947 -3.564
                    CHANNELS 3 Zrotation Xrotation Yrotation
                    JOINT RightFinger41
                    {
                      OFFSET 0.4882 -2.341 -0.6462
                      CHANNELS 3 Zrotation Xrotation Yrotation
                      JOINT RightFinger42
                      {
                        OFFSET 0.3574 -1.7166 -0.4742
                        CHANNELS 3 Zrotation Xrotation Yrotation
                        End Site
                        {
                          OFFSET 0.4187 -1.5237 -0.3496
                        }
                      }
                    }
                  }
                  JOINT RightFinger0
                  {
                    OFFSET 1.4199 -1.8761 1.4221
                    CHANNELS 3 Zrotation Xrotation Yrotation
                    JOINT RightFinger01
                    {
                      OFFSET 1.1472 -3.4929 2.6336
                      CHANNELS 3 Zrotation Xrotation Yrotation
                      JOINT RightFinger02
                      {
                        OFFSET 0.8229 -2.3 1.6571
                        CHANNELS 3 Zrotation Xrotation Yrotation
                        End Site
                        {
                          OFFSET 0.5822 -1.6914 1.1582
                        }
                      }
                    }
                  }
                }
              }
            }
          }
        }
      }
    }
    JOINT RightHip
    {
      OFFSET -9.412 3.9771 -0.7758
      CHANNELS 3 Zrotation Xrotation Yrotation
      JOINT RightKnee
      {
        OFFSET -0.7531 -40.938 0
        CHANNELS 3 Zrotation Xrotation Yrotation
        JOINT RightAnkle
        {
          OFFSET 0 -40.1986 0
          CHANNELS 3 Zrotation Xrotation Yrotation
          JOINT RightToe
          {
            OFFSET 0 -4.4182 9.239
            CHANNELS 3 Zrotation Xrotation Yrotation
            End Site
            {
              OFFSET 0 0 6.1981
            }
          }
        }
      }
    }
    JOINT LeftHip
    {
      OFFSET 9.4119 3.9773 -0.7758
      CHANNELS 3 Zrotation Xrotation Yrotation
      JOINT LeftKnee
      {
        OFFSET 0.7532 -40.9383 0
        CHANNELS 3 Zrotation Xrotation Yrotation
        JOINT LeftAnkle
        {
          OFFSET 0 -40.1986 0
          CHANNELS 3 Zrotation Xrotation Yrotation
          JOINT LeftToe
          {
            OFFSET 0 -4.4182 9.239
            CHANNELS 3 Zrotation Xrotation Yrotation
            End Site
            {
              OFFSET 0 0 6.1981
            }
          }
        }
      }
    }
  }
}
MOTION
Frames:	6
Frame Time:	0.0333333
4.70297 -0.360771 -1.6958 0 0 -0 -1.03609e-005 1.06879e-009 -3.41306e-006 0.461405 -0.00366866 0.0887767 0.922816 -0.00662228 0.17758 0.922805 -0.00662222 0.177578 -0.000433504 1.40909e-006 -7.85108e-005 -3.62752e-006 -6.16029e-006 -9.81626e-006 -0.000433188 -4.5003e-007 -12.5015 11.0089 2.80155 17.5137 -18.3333 -34.7451 -4.54959 0.000318657 0.000744414 -9.74831e-005 -1.40137e-005 -1.62226e-005 1.32746e-005 3.85273e-006 1.64998e-005 -3.97487e-007 -4.34276e-005 1.27074e-006 2.1139e-005 -1.13004e-005 2.83675e-006 -1.72452e-006 -0.0127764 0.00236222 0.000116388 4.39953e-005 -9.14776e-005 -2.37808e-005 -3.29528e-005 -2.47978e-005 -3.38255e-005 -0.0160259 0.00305251 0.000858829 -1.19651e-005 -1.74729e-005 -2.54075e-006 -1.49468e-005 1.71216e-006 -2.38351e-005 -0.0125933 0.00309089 0.00286115 -3.2805e-005 9.24375e-006 1.96457e-005 3.60055e-005 2.83279e-007 -6.62123e-005 1.85824e-005 1.59111e-005 5.05099e-007 -1.67079e-005 -2.40125e-005 -2.74079e-005 -0.866064 0.165819 7.03851 -10.8277 8.10082 -22.7989 12.6483 -29.8777 4.18713 0.00010624 0.00124334 4.54163e-005 4.31775e-005 1.89528e-005 -2.1699e-005 -3.31215e-006 -1.54523e-006 -9.87481e-006 -4.3686e-005 -2.4602e-005 7.08543e-006 1.76617e-005 1.85019e-006 4.10803e-007 0.0129643 0.00230946 -7.73242e-005 -2.89345e-005 -3.00126e-006 8.27774e-006 1.77276e-005 8.04429e-006 -1.26171e-005 0.0163222 0.00304933 -0.000855525 1.80392e-005 -2.78234e-005 1.89319e-006 3.3405e-005 3.41564e-005 4.26758e-006 0.0145665 0.00367317 -0.00326536 -1.3781e-005 -2.90747e-006 1.00164e-005 0.000101545 2.88718e-005 -2.57099e-005 -2.7405e-005 -5.8349e-006 1.44024e-005 3.71539e-005 3.83808e-005 -1.82674e-005 -5.59752 3.29363 0.131444 0.00213019 0.0254016 0.0183751 5.59619 -3.31796 0.174833 0.000207894 -7.68409e-006 2.39054e-005 -0.669879 -0.192115 0.00403139 0.00206891 3.72293 0.0110156 0.66785 -3.53074 0.0251057 -0.00010288 -1.19537e-005 2.56118e-006 
4.78573 -0.349426 -1.7115 0 0 -0 0.0630985 -0.0365477 0.868265 0.394879 0.000975855 0.155011 0.789756 0.00301982 0.310012 0.789757 0.00301981 0.310012 0.0594646 -0.222862 -0.877509 0.307313 -0.0388121 -0.436781 0.375913 -0.00111435 -12.5436 10.6742 3.35481 17.5534 -17.943 -33.4835 -4.74953 0.0307613 0.877007 -1.1748 -1.02371e-005 -1.97301e-005 2.80512e-006 5.93202e-006 1.98737e-005 1.88676e-005 -2.28726e-005 9.2141e-006 5.80952e-006 1.92478e-006 -2.90301e-006 6.64195e-006 -0.0128112 0.00236331 0.000122013 3.20599e-005 -9.68127e-005 -1.75495e-005 -2.13581e-005 -3.15591e-005 -2.16523e-005 -0.0160319 0.00305582 0.000868578 -1.7261e-006 -3.95596e-005 -3.08023e-006 -6.88779e-006 -5.55613e-006 -2.29093e-005 -0.0125968 0.00308992 0.00286097 2.96228e-006 -7.12929e-008 9.78625e-006 2.83289e-005 7.09486e-007 -4.89564e-005 1.10072e-005 1.11355e-005 4.8203e-007 -4.14392e-005 -5.68284e-006 -6.9018e-006 -0.930873 0.169399 6.89954 -12.0394 7.53801 -23.0667 10.6354 -27.6684 3.13097 2.03376 1.89372 5.77213 4.12313e-005 1.24543e-005 -3.05664e-005 8.84765e-006 8.38513e-006 -6.47661e-006 -6.25777e-005 -2.6882e-005 8.19677e-006 1.06298e-005 5.63493e-006 -1.26997e-005 0.0129316 0.00230456 -6.09378e-005 -3.03539e-005 -9.08356e-006 1.65676e-006 2.73202e-005 8.13081e-006 -1.46481e-005 0.0163127 0.00304512 -0.00085187 1.37562e-005 -1.97111e-005 -1.08092e-006 4.20724e-005 3.89071e-005 -7.73473e-006 0.0145938 0.00368349 -0.00326918 -4.0069e-005 -1.53773e-005 1.9952e-005 9.11943e-005 2.93622e-005 -5.76723e-005 -4.06319e-005 -1.64399e-005 2.18066e-005 4.29408e-005 4.27084e-005 -1.10944e-005 -5.65543 3.45794 -0.475243 -0.00316571 0.136734 0.0135111 5.64439 -3.50025 -0.0581831 0.0112649 0.0752808 -0.00430759 -0.789594 0.0360644 -1.15732 0.0103807 3.37884 0.00557437 0.653538 -3.3633 0.260696 0.0491245 0.0372083 -0.000114979 
4.91387 -0.351837 -1.79811 0 0 -0 0.157257 -0.127297 1.61391 0.339257 0.0282181 0.378029 0.678313 0.0586732 0.755875 0.67832 0.0586739 0.755883 0.0701821 -0.736173 -2.23322 0.720715 -0.00189432 -1.11446 0.785562 -0.0161061 -12.8447 10.5299 3.46361 17.4987 -17.4165 -32.24 -4.79821 0.0749705 1.66174 -1.97003 -1.57454e-005 -3.10988e-005 9.16097e-006 2.17928e-005 1.80825e-005 2.20676e-007 -4.30629e-005 1.43727e-005 2.26964e-005 -2.01631e-005 -9.14152e-006 3.00107e-005 -0.0128603 0.00237583 0.000121296 3.79457e-005 -8.15314e-005 -9.43636e-006 -4.31968e-005 -3.0592e-005 -2.55571e-005 -0.0160376 0.0030391 0.000864391 9.25794e-006 -2.08222e-005 -2.0371e-006 -3.28683e-005 -2.93933e-007 -3.96507e-006 -0.0125471 0.00308095 0.00284278 -1.39805e-005 1.18479e-005 2.59477e-005 3.85768e-005 -7.21453e-006 -3.92283e-005 1.23472e-005 5.43425e-006 -7.20938e-006 -4.61276e-005 -5.81094e-006 3.66814e-007 -1.55074 0.186155 6.23418 -14.7635 5.40971 -23.7695 8.09561 -22.4681 0.427772 2.73279 3.66222 12.9839 2.45085e-005 3.20862e-005 -2.80574e-005 -1.13595e-006 6.37766e-006 -1.00042e-005 -4.62512e-005 -3.96676e-005 4.85021e-006 2.35533e-005 1.17548e-005 7.32324e-006 0.0129437 0.00231094 -6.28993e-005 -3.47472e-005 -1.49382e-005 1.95662e-005 2.21653e-005 1.65335e-005 -2.49141e-006 0.0163138 0.00304927 -0.000850985 2.25026e-005 -2.78828e-005 2.91548e-006 2.51416e-005 4.02254e-005 1.42034e-005 0.0146121 0.00368477 -0.00326934 -1.82226e-005 -6.50603e-006 2.52947e-005 6.31609e-005 2.23996e-005 -8.85587e-005 -3.20539e-005 -2.13608e-005 2.88992e-005 2.96144e-005 3.88007e-005 -9.77456e-006 -5.7919 3.72525 -0.706709 0.00365973 0.000981576 0.0238669 5.75986 -3.5489 -0.536691 0.0369757 0.248506 -0.0142739 -0.963658 -0.197966 -1.98334 0.0188881 3.55715 0.0230028 0.651944 -3.20337 0.283924 0.115397 0.0887578 -0.000552343 
5.1083 -0.371536 -1.92141 0 0 -0 0.181384 -0.370706 2.11041 0.322242 0.070752 0.72437 0.643568 0.145572 1.44834 0.643563 0.145571 1.44833 0.104391 -1.11619 -3.8394 1.09348 -0.0946548 -1.90883 1.08287 -0.0391395 -13.2912 10.732 3.5848 17.6448 -17.1737 -31.2349 -4.68886 0.212353 2.61025 -3.21684 -9.23599e-006 -1.77633e-005 7.76295e-006 3.43669e-006 1.84481e-005 -1.43662e-006 -3.1883e-005 8.26886e-006 2.30747e-005 -3.88333e-005 4.77283e-007 6.8741e-005 -0.0127918 0.00237383 0.000127383 4.10373e-005 -7.77711e-005 -1.1954e-005 -4.27722e-005 -1.43723e-005 -1.38273e-005 -0.0160217 0.00304581 0.000864283 1.91623e-005 2.09948e-006 8.34098e-006 -2.98608e-005 -1.82064e-006 7.28551e-006 -0.0125657 0.00308046 0.00286211 -8.96722e-006 3.10615e-005 1.66521e-005 3.44126e-005 -4.88573e-006 -3.0025e-005 6.78253e-006 2.64346e-005 -1.12872e-006 -3.5848e-005 -2.25852e-005 -8.31895e-007 -2.78549 0.20008 5.62713 -19.7377 2.73752 -26.2379 5.76231 -16.0399 -5.45393 2.38471 4.98668 11.1734 1.59859e-005 1.89133e-005 -2.46714e-005 -1.7857e-005 3.27355e-006 -1.28412e-005 -5.29424e-005 -2.99846e-005 1.72621e-005 1.79287e-005 5.76764e-006 1.60861e-005 0.0129135 0.00229964 -3.66217e-005 -5.18214e-006 -7.1434e-006 1.00225e-005 1.66167e-005 1.12978e-005 7.68169e-006 0.0163403 0.00305326 -0.000842415 3.66705e-005 -2.55476e-005 -3.1203e-006 -2.69549e-006 3.09347e-005 4.21998e-005 0.014555 0.00367126 -0.00324676 5.94957e-006 -2.02269e-005 1.99026e-005 8.67655e-005 9.86345e-006 -0.000125012 -4.61701e-005 -3.26089e-005 3.01979e-005 3.65373e-005 4.17192e-005 -1.11869e-005 -5.92025 3.97013 -0.907819 0.0207705 0.0327407 0.035233 5.81513 -3.57257 -0.787785 0.0549259 0.365029 -0.0210566 -1.12619 -0.00448463 -2.15174 0.0497157 3.55323 0.0648059 0.874501 -3.11629 -0.1262 0.0769589 0.00154022 -0.000453477 
5.41199 -0.374184 -2.0719 0 0 -0 0.1951 -0.619564 2.61077 0.331484 0.116095 1.00891 0.660876 0.23801 2.01712 0.660876 0.23801 2.01713 0.134396 -1.61095 -5.04146 1.2917 -0.0935058 -2.8287 0.944828 -0.0446261 -13.3868 11.7952 3.88187 17.9367 -17.472 -30.6784 -5.14039 0.175954 3.2073 -4.20919 1.9302e-005 -1.18485e-005 9.87506e-006 -5.4325e-007 1.23461e-005 1.09193e-005 -3.21268e-005 5.74622e-006 3.63441e-005 -3.41991e-005 3.49484e-006 0.000151043 -0.0127891 0.00236033 0.00014075 5.63921e-005 -5.36477e-005 8.02748e-006 -4.03442e-005 -1.4671e-005 -1.59514e-005 -0.0160564 0.00305577 0.000877187 3.69279e-005 -4.70195e-006 2.20424e-005 -1.58245e-005 2.51975e-006 2.46471e-005 -0.0125984 0.00309218 0.00287454 9.57552e-006 3.35379e-005 3.81698e-005 4.29322e-005 8.42091e-007 -9.32433e-006 -2.17582e-005 8.24444e-006 8.05855e-006 -3.11188e-005 -9.8265e-006 4.99026e-006 -3.83907 0.200032 5.53084 -28.5848 0.871347 -30.7425 3.88029 -12.2109 -12.5952 0.554296 7.40462 5.33386 3.50931e-005 2.03499e-005 -2.61776e-005 -8.98787e-006 3.0626e-006 3.73652e-006 -5.96347e-005 -3.30233e-005 1.98427e-005 1.14095e-005 1.20332e-005 6.47227e-005 0.012976 0.00229516 -3.18022e-005 -3.59848e-005 -3.20451e-005 3.64675e-005 1.44055e-005 1.18824e-005 6.34772e-005 0.016375 0.00305889 -0.00084809 3.08326e-005 -2.77066e-005 -1.2483e-006 2.52727e-005 3.35621e-005 0.000110235 0.0146089 0.00368236 -0.00324968 -3.98784e-005 -3.55587e-005 4.30397e-005 9.28981e-005 2.63172e-005 -0.000245394 -3.56828e-005 -4.11778e-005 5.12315e-005 2.10356e-005 2.56515e-005 -1.70151e-005 -6.10271 4.13859 -1.3829 0.041909 0.184054 0.0345461 5.74835 -3.59375 -0.816683 0.0689739 0.451826 -0.0261445 -1.32355 -0.311156 -2.18456 0.0273209 4.17973 0.122486 1.08433 -3.17147 -0.555919 0.0385272 -0.0856572 -0.000406114 
5.81028 -0.395088 -2.28583 0 0 -0 0.347595 -0.613028 3.12791 0.328282 0.0868703 1.12679 0.654793 0.18018 2.25307 0.654789 0.180179 2.25306 0.139353 -1.8118 -5.63122 1.21405 -0.167494 -3.50738 0.396963 -0.0155575 -12.8139 13.5813 4.5963 18.4558 -18.1608 -30.5008 -5.99313 0.0353709 3.28036 -5.06574 5.69263e-006 -3.24216e-005 9.0068e-006 3.10229e-005 1.54045e-005 1.33953e-005 -9.57749e-006 1.40722e-005 4.36241e-005 1.0004e-005 -1.77266e-005 -5.96498e-006 -0.0128073 0.00239394 0.000183619 5.0843e-005 -3.76154e-005 3.07203e-005 -1.23053e-005 -4.08037e-005 -4.96009e-006 -0.0160548 0.00307177 0.000874597 3.40335e-005 2.87314e-005 6.07344e-005 -1.60704e-005 -2.24804e-005 6.29662e-005 -0.0126058 0.00310819 0.00290347 2.49007e-005 7.07603e-005 4.96913e-005 2.896e-005 -7.78012e-006 2.95745e-005 9.10423e-006 -5.29926e-006 -6.68979e-006 -4.54213e-005 5.49007e-006 4.29542e-005 -4.89464 0.180858 6.1248 -40.6712 0.531315 -36.1483 3.41006 -11.3703 -18.1012 -2.39331 5.60898 1.36854 2.41583e-005 1.00673e-005 -1.73845e-005 6.89713e-006 1.9393e-006 -2.4996e-006 -5.08599e-005 -1.96306e-005 2.41714e-005 -2.71634e-006 2.10842e-006 0.000104239 0.0129082 0.00227815 1.89826e-005 -3.06473e-005 -6.82822e-005 5.19878e-005 2.56947e-005 2.89691e-005 0.000136917 0.0163021 0.00302867 -0.000850137 2.48354e-005 -2.96037e-005 -8.747e-006 1.82077e-005 2.18572e-005 -1.53623e-005 0.0146294 0.00365538 -0.00322046 -5.23032e-006 -4.78896e-005 6.78033e-005 0.000104323 3.55408e-005 -3.50113e-005 -7.16829e-005 -6.52645e-005 8.06129e-005 4.55e-005 4.15972e-005 -1.3331e-005 -6.49743 4.09549 -1.94897 0.051931 0.216197 0.0502666 5.75837 -3.4083 -0.751732 0.0685754 0.436169 -0.0251423 -1.75623 -0.587444 -2.29019 0.0327193 4.22467 0.15868 1.35014 -2.92272 -0.91438 0.0801985 -0.29936 -0.000349535 
